<svg width="28" height="28" viewBox="0 0 28 28" fill="none" xmlns="http://www.w3.org/2000/svg">
<path id="Vector (Stroke)" fill-rule="evenodd" clip-rule="evenodd" d="M9.99875 3.12942C9.65027 2.97476 9.26607 2.91853 8.88787 2.96685C8.50968 3.01516 8.15195 3.16617 7.85354 3.40347C7.55513 3.64078 7.32743 3.9553 7.19519 4.3129C6.95094 4.97334 6.21754 5.31074 5.55709 5.06649C4.89665 4.82224 4.55925 4.08884 4.8035 3.4284C5.09736 2.6338 5.60331 1.93491 6.2664 1.40761C6.92949 0.880306 7.72438 0.54476 8.56474 0.437404C9.4051 0.330049 10.2588 0.454989 11.0332 0.798656C11.8075 1.14232 12.4729 1.69158 12.9571 2.38678C13.4413 3.08199 13.7257 3.89656 13.7796 4.74203C13.8334 5.58751 13.6546 6.43158 13.2625 7.18258C12.8704 7.93358 12.28 8.5628 11.5555 9.00191C10.831 9.44102 10 9.67323 9.15284 9.67333L1.27501 9.67334C0.570847 9.67334 9.82881e-06 9.1025 9.52482e-06 8.39834C9.32217e-06 7.69417 0.570846 7.12334 1.27501 7.12334L9.15254 7.12333C9.15249 7.12333 9.15259 7.12333 9.15254 7.12333C9.53375 7.12326 9.90781 7.01876 10.2338 6.82117C10.5599 6.62356 10.8256 6.34038 11.002 6.00241C11.1785 5.66444 11.259 5.28458 11.2347 4.90408C11.2105 4.52358 11.0825 4.157 10.8646 3.84414C10.6467 3.53127 10.3472 3.28409 9.99875 3.12942ZM23.4128 8.73064C23.066 8.57634 22.6838 8.52031 22.3077 8.56848C21.9315 8.61665 21.5755 8.76723 21.2782 9.00422C20.9808 9.24123 20.7536 9.55567 20.6215 9.91364C20.3778 10.5743 19.6447 10.9122 18.984 10.6685C18.3234 10.4248 17.9854 9.69166 18.2292 9.03102C18.5222 8.2368 19.0268 7.53782 19.6887 7.01022C20.3505 6.48261 21.1443 6.14664 21.9838 6.03913C22.8233 5.93163 23.676 6.05677 24.4493 6.4008C25.2226 6.74482 25.8867 7.29446 26.3697 7.98965C26.8526 8.68482 27.1362 9.49905 27.1899 10.3439C27.2435 11.1888 27.0653 12.0324 26.6743 12.7831C26.2832 13.5339 25.6942 14.1634 24.9709 14.6029C24.2475 15.0424 23.4176 15.2749 22.5712 15.275H1.275C0.570837 15.275 0 14.7042 0 14C0 13.2959 0.570837 12.725 1.275 12.725H22.5709C22.5709 12.725 22.571 12.725 22.5709 12.725C22.95 12.7249 23.3222 12.6208 23.6468 12.4236C23.9715 12.2263 24.2365 11.9434 24.4126 11.6052C24.5888 11.267 24.6692 10.8867 24.645 10.5056C24.6208 10.1245 24.4929 9.75753 24.2755 9.44463C24.0581 9.13175 23.7596 8.88495 23.4128 8.73064ZM9.52482e-06 19.6017C9.52482e-06 18.8976 0.570846 18.3267 1.27501 18.3267H18.075C18.9222 18.3268 19.7533 18.559 20.4779 18.9981C21.2024 19.4372 21.7927 20.0665 22.1848 20.8175C22.5769 21.5685 22.7557 22.4125 22.7019 23.258C22.6481 24.1035 22.3636 24.9181 21.8794 25.6133C21.3953 26.3085 20.7299 26.8577 19.9555 27.2014C19.1812 27.5451 18.3274 27.67 17.4871 27.5626C16.6467 27.4553 15.8518 27.1197 15.1887 26.5924C14.5256 26.0651 14.0197 25.3662 13.7258 24.5716C13.4816 23.9112 13.819 23.1778 14.4794 22.9336C15.1399 22.6893 15.8733 23.0267 16.1175 23.6872C16.2498 24.0447 16.4775 24.3593 16.7759 24.5966C17.0743 24.8339 17.432 24.9849 17.8102 25.0332C18.1884 25.0815 18.5726 25.0253 18.9211 24.8706C19.2696 24.716 19.569 24.4688 19.7869 24.1559C20.0048 23.8431 20.1328 23.4765 20.1571 23.096C20.1813 22.7155 20.1008 22.3356 19.9244 21.9976C19.7479 21.6597 19.4822 21.3765 19.1562 21.1789C18.8301 20.9813 18.4562 20.8768 18.075 20.8767C18.075 20.8767 18.0751 20.8767 18.075 20.8767H1.27501C0.570846 20.8767 9.52482e-06 20.3059 9.52482e-06 19.6017Z" fill="#616161"/>
</svg>
