<?xml version="1.0" standalone="no"?>
<!DOCTYPE svg PUBLIC "-//W3C//DTD SVG 20010904//EN"
 "http://www.w3.org/TR/2001/REC-SVG-20010904/DTD/svg10.dtd">
<svg version="1.0" xmlns="http://www.w3.org/2000/svg"
 width="225.000000pt" height="225.000000pt" viewBox="0 0 225.000000 225.000000"
 preserveAspectRatio="xMidYMid meet">

<g transform="translate(0.000000,225.000000) scale(0.100000,-0.100000)"
fill="#000000" stroke="none">
<path d="M637 1911 c-44 -5 -61 -11 -70 -26 -6 -11 -36 -47 -68 -80 -82 -87
-110 -154 -89 -209 16 -43 35 -27 31 27 -3 57 6 75 81 157 32 36 65 73 73 83
12 13 31 17 90 17 72 0 75 -1 75 -24 0 -28 9 -36 79 -65 l55 -23 17 21 c16 20
19 20 66 6 53 -16 86 -45 98 -85 16 -57 59 -140 71 -140 19 0 18 14 -5 58 -10
20 -22 51 -25 67 -17 78 -79 129 -172 142 -38 5 -49 3 -59 -11 -12 -16 -15
-16 -48 0 -25 12 -37 25 -41 46 -4 18 -15 32 -31 38 -28 11 -36 11 -128 1z"/>
<path d="M1269 1758 c-11 -13 -44 -81 -73 -153 -30 -71 -85 -196 -125 -276
-39 -80 -86 -191 -104 -248 -18 -56 -39 -107 -45 -113 -17 -17 -38 5 -58 60
-9 26 -25 69 -36 96 -16 39 -18 54 -9 73 20 44 14 108 -14 141 -15 18 -25 42
-25 61 0 21 -9 41 -25 57 -24 24 -30 25 -119 22 -62 -1 -98 2 -108 10 -16 13
-28 7 -28 -14 0 -22 66 -36 143 -29 41 3 78 2 86 -4 8 -5 16 -28 17 -51 1 -30
10 -50 29 -70 24 -25 26 -33 21 -72 -13 -79 -9 -112 20 -189 40 -105 58 -129
94 -129 35 0 53 23 70 90 18 67 91 242 154 369 31 61 74 157 97 213 22 57 47
114 56 126 14 23 15 23 34 6 10 -9 19 -24 19 -33 1 -9 60 -173 133 -365 118
-311 157 -397 157 -340 0 9 -56 166 -124 348 -68 182 -127 342 -131 356 -12
41 -45 80 -66 80 -11 0 -29 -10 -40 -22z"/>
<path d="M450 1536 c0 -9 7 -16 16 -16 17 0 14 22 -4 28 -7 2 -12 -3 -12 -12z"/>
<path d="M1635 941 c-7 -12 12 -24 25 -16 11 7 4 25 -10 25 -5 0 -11 -4 -15
-9z"/>
<path d="M422 570 c-17 -38 -27 -70 -23 -70 9 0 33 46 38 75 8 43 26 37 38
-15 5 -18 30 -60 36 -60 7 0 -44 127 -55 137 -2 2 -17 -28 -34 -67z"/>
<path d="M662 568 c1 -41 3 -56 5 -35 4 34 7 37 36 38 l32 1 -30 7 c-21 4 -31
13 -33 28 -3 18 3 22 30 26 l33 4 -37 1 -38 2 2 -72z"/>
<path d="M892 573 l-2 -73 38 2 c36 1 36 1 5 5 l-32 4 -4 67 -3 67 -2 -72z"/>
<path d="M1100 570 c0 -40 4 -70 10 -70 6 0 10 30 10 70 0 40 -4 70 -10 70 -6
0 -10 -30 -10 -70z"/>
<path d="M1280 576 c-7 -37 -10 -69 -7 -72 3 -3 9 15 12 40 4 25 10 46 14 46
3 0 15 -21 25 -47 l19 -46 22 49 c23 52 28 51 39 -10 4 -21 9 -36 12 -33 3 2
-1 35 -8 72 l-12 68 -27 -59 c-26 -57 -27 -58 -37 -34 -6 14 -17 40 -25 59
l-14 34 -13 -67z"/>
<path d="M1570 570 l0 -70 35 0 c24 0 37 6 45 19 11 21 4 51 -12 51 -6 0 -6 6
2 15 6 8 9 23 5 35 -5 15 -15 20 -41 20 l-34 0 0 -70z m65 35 c0 -14 -8 -21
-27 -23 -24 -3 -28 0 -28 23 0 23 4 26 28 23 19 -2 27 -9 27 -23z m0 -65 c0
-18 -6 -26 -23 -28 -24 -4 -38 18 -28 44 3 9 15 14 28 12 17 -2 23 -10 23 -28z"/>
<path d="M1842 620 c-6 -14 -19 -46 -31 -72 -11 -27 -16 -48 -11 -48 6 0 10 6
10 13 0 7 5 18 12 25 6 6 13 22 15 34 7 46 29 39 38 -12 0 -3 8 -18 17 -35 28
-49 20 -13 -11 56 -28 61 -30 63 -39 39z"/>
</g>
</svg>
