<?xml version="1.0" standalone="no"?>
<!DOCTYPE svg PUBLIC "-//W3C//DTD SVG 20010904//EN"
 "http://www.w3.org/TR/2001/REC-SVG-20010904/DTD/svg10.dtd">
<svg version="1.0" xmlns="http://www.w3.org/2000/svg"
 width="224.000000pt" height="225.000000pt" viewBox="0 0 224.000000 225.000000"
 preserveAspectRatio="xMidYMid meet">

<g transform="translate(0.000000,225.000000) scale(0.100000,-0.100000)"
fill="#000000" stroke="none">
<path d="M653 1719 c-40 -37 -43 -77 -14 -192 25 -96 54 -164 97 -224 39 -55
41 -63 15 -63 -28 0 -34 -15 -26 -61 8 -44 48 -99 73 -99 11 0 28 -24 49 -68
36 -77 64 -125 76 -130 4 -2 3 -10 -4 -18 -8 -10 -8 -14 0 -14 6 0 11 5 11 11
0 8 6 7 17 -2 9 -8 -1 9 -22 36 -37 49 -95 159 -95 181 0 6 -12 14 -27 17 -33
7 -63 52 -63 95 0 37 12 47 40 32 19 -10 20 -8 20 46 0 116 69 294 114 294 6
0 19 -22 29 -49 21 -60 79 -113 141 -131 83 -23 112 2 79 69 -26 51 -3 36 35
-23 26 -42 34 -102 33 -246 -1 -102 -80 -328 -123 -351 -24 -13 -64 -11 -103
5 -19 8 -35 13 -35 10 0 -10 70 -34 99 -34 43 0 60 9 77 41 8 16 13 30 12 31
-2 2 7 19 18 38 48 81 94 293 75 343 -8 21 -8 40 0 73 16 61 6 159 -20 219
-56 126 -199 237 -229 178 -5 -10 -12 -38 -16 -63 -9 -57 -30 -90 -59 -90 -35
0 -100 43 -122 79 -32 54 -72 91 -97 91 -13 0 -38 -14 -55 -31z"/>
<path d="M1173 843 c2 -16 11 -29 20 -31 21 -4 23 16 3 24 -8 3 -12 12 -9 20
3 8 0 14 -6 14 -7 0 -10 -11 -8 -27z"/>
<path d="M920 830 c0 -5 5 -10 10 -10 6 0 10 5 10 10 0 6 -4 10 -10 10 -5 0
-10 -4 -10 -10z"/>
<path d="M930 794 c0 -9 5 -14 12 -12 18 6 21 28 4 28 -9 0 -16 -7 -16 -16z"/>
<path d="M1177 784 c-9 -10 2 -24 19 -24 8 0 14 7 14 15 0 15 -21 21 -33 9z"/>
<path d="M955 770 c-7 -12 2 -30 16 -30 5 0 9 9 9 20 0 21 -15 27 -25 10z"/>
<path d="M993 734 c-3 -8 -3 -18 0 -21 4 -3 0 -15 -8 -27 -17 -24 -20 -66 -4
-66 5 0 7 5 4 11 -10 15 3 59 17 59 9 0 9 -3 0 -12 -15 -15 -16 -48 -2 -48 6
0 11 12 12 28 2 46 3 50 11 58 11 12 8 21 -8 28 -9 3 -18 -1 -22 -10z"/>
<path d="M1154 729 c-3 -6 -2 -15 4 -21 13 -13 32 -2 32 18 0 16 -26 19 -36 3z"/>
<path d="M1037 706 c-8 -20 20 -43 35 -28 14 14 3 42 -16 42 -7 0 -16 -6 -19
-14z"/>
<path d="M1100 691 c0 -27 26 -46 34 -25 11 29 6 44 -14 44 -13 0 -20 -7 -20
-19z"/>
<path d="M1021 633 c-1 -23 -4 -50 -7 -60 -3 -11 -2 -14 3 -7 12 15 39 24 95
30 46 5 48 4 48 -20 0 -36 37 -36 46 -1 4 15 13 25 24 25 10 0 23 6 29 14 10
12 8 17 -7 25 -11 6 -21 8 -24 6 -7 -8 -174 -14 -185 -7 -5 4 -13 14 -16 22
-3 8 -6 -4 -6 -27z m232 -6 c7 3 9 2 4 -2 -12 -13 -47 -16 -47 -4 0 5 5 7 10
4 6 -3 10 0 11 7 0 10 2 10 6 0 2 -6 10 -9 16 -5z m-203 -29 c0 -19 -16 -5
-17 14 -2 18 0 20 7 8 5 -8 10 -18 10 -22z m40 12 c-20 -13 -30 -12 -30 1 0 5
4 8 9 4 5 -3 13 0 16 6 4 5 10 8 13 4 4 -3 0 -10 -8 -15z m54 11 c3 -5 -3 -11
-14 -14 -20 -5 -26 3 -13 16 9 10 21 9 27 -2z m52 -15 c6 -27 -1 -46 -18 -46
-6 0 -8 13 -6 29 2 17 1 28 -4 25 -4 -3 -8 0 -8 5 0 22 30 10 36 -13z"/>
<path d="M996 603 c-6 -14 -5 -15 5 -6 7 7 10 15 7 18 -3 3 -9 -2 -12 -12z"/>
</g>
</svg>
