<?xml version="1.0" standalone="no"?>
<!DOCTYPE svg PUBLIC "-//W3C//DTD SVG 20010904//EN"
 "http://www.w3.org/TR/2001/REC-SVG-20010904/DTD/svg10.dtd">
<svg version="1.0" xmlns="http://www.w3.org/2000/svg"
 width="225.000000pt" height="225.000000pt" viewBox="0 0 225.000000 225.000000"
 preserveAspectRatio="xMidYMid meet">

<g transform="translate(0.000000,225.000000) scale(0.100000,-0.100000)"
fill="#000000" stroke="none">
<path d="M956 1362 c-3 -5 1 -9 9 -9 8 0 12 4 9 9 -3 4 -7 8 -9 8 -2 0 -6 -4
-9 -8z"/>
<path d="M1269 1353 c-13 -16 -12 -17 4 -4 9 7 17 15 17 17 0 8 -8 3 -21 -13z"/>
<path d="M932 1279 l-32 -49 65 0 66 0 -32 48 c-18 26 -33 48 -33 49 -1 1 -16
-21 -34 -48z"/>
<path d="M1251 1283 l-31 -48 56 -3 c31 -2 58 -1 61 1 2 3 -9 25 -25 51 l-30
46 -31 -47z"/>
<path d="M1210 1309 c0 -5 5 -7 10 -4 6 3 10 8 10 11 0 2 -4 4 -10 4 -5 0 -10
-5 -10 -11z"/>
<path d="M1319 1305 c5 -11 17 -29 26 -40 l16 -20 -10 20 c-5 11 -17 29 -26
40 l-16 20 10 -20z"/>
<path d="M910 1290 c-6 -11 -8 -20 -6 -20 3 0 10 9 16 20 6 11 8 20 6 20 -3 0
-10 -9 -16 -20z"/>
<path d="M1076 1272 c9 -16 24 -38 33 -50 16 -21 16 -21 49 28 l32 50 -65 0
-66 0 17 -28z"/>
<path d="M1224 1288 c-4 -7 -14 -24 -22 -38 -14 -24 -13 -24 3 -5 20 24 37 55
31 55 -3 0 -8 -6 -12 -12z"/>
<path d="M1170 1240 c-6 -11 -8 -20 -6 -20 3 0 10 9 16 20 6 11 8 20 6 20 -3
0 -10 -9 -16 -20z"/>
<path d="M1080 1220 c6 -11 13 -20 16 -20 2 0 0 9 -6 20 -6 11 -13 20 -16 20
-2 0 0 -9 6 -20z"/>
<path d="M1366 1227 c3 -10 9 -15 12 -12 3 3 0 11 -7 18 -10 9 -11 8 -5 -6z"/>
<path d="M1100 1187 c0 -2 6 -10 14 -16 11 -9 16 -9 22 1 4 7 4 10 -1 6 -4 -4
-14 -3 -22 3 -7 6 -13 9 -13 6z"/>
<path d="M589 1022 l-36 -77 -36 75 c-39 84 -34 87 -62 -48 -18 -90 -18 -92
-1 -92 10 0 16 19 21 60 4 33 11 63 16 66 5 3 9 1 9 -4 0 -5 12 -36 26 -67
l27 -58 32 69 32 69 8 -56 c7 -59 19 -88 31 -76 6 5 -21 206 -29 213 -1 1 -18
-32 -38 -74z"/>
<path d="M742 1088 c-39 -11 -72 -59 -72 -106 0 -46 55 -102 98 -102 106 0
158 110 85 181 -33 32 -66 40 -111 27z m93 -43 c74 -73 -34 -186 -110 -115
-52 49 -16 140 55 140 19 0 40 -9 55 -25z"/>
<path d="M933 1090 c-12 -5 -25 -21 -29 -36 -6 -22 -2 -32 20 -51 15 -13 33
-23 41 -23 8 0 19 -9 25 -20 8 -15 6 -24 -10 -40 -16 -16 -25 -18 -40 -10 -11
6 -20 15 -20 20 0 6 -7 10 -15 10 -21 0 -19 -16 5 -40 24 -24 57 -26 88 -4 18
12 22 24 20 52 -3 32 -9 40 -43 58 -22 11 -41 28 -43 37 -4 22 25 34 48 19 22
-13 47 0 28 15 -21 17 -51 22 -75 13z"/>
<path d="M1350 1093 c-63 -20 -97 -68 -86 -125 9 -48 45 -79 98 -85 37 -4 49
-1 76 22 72 60 44 169 -48 188 -14 3 -32 3 -40 0z m75 -48 c52 -51 16 -138
-57 -138 -39 0 -78 41 -78 84 0 40 39 79 80 79 19 0 40 -9 55 -25z"/>
<path d="M1500 988 c0 -83 3 -109 13 -105 8 2 12 27 12 75 0 40 1 72 1 72 1 0
36 -35 78 -77 l76 -78 0 108 c0 88 -3 107 -15 107 -12 0 -15 -15 -15 -72 l0
-73 -75 76 -75 76 0 -109z"/>
<path d="M1740 1087 c-49 -25 -33 -81 31 -107 35 -15 40 -53 9 -70 -15 -8 -24
-6 -40 10 -22 22 -40 26 -40 10 0 -19 40 -50 65 -50 51 0 85 69 51 103 -8 8
-28 20 -45 27 -19 8 -31 20 -31 32 0 24 27 35 51 20 13 -8 20 -8 25 -1 15 25
-40 44 -76 26z"/>
<path d="M1040 985 c0 -87 3 -105 15 -105 11 0 15 12 15 50 l0 50 45 0 45 0 0
-50 c0 -38 4 -50 15 -50 12 0 15 18 15 105 0 87 -3 105 -15 105 -11 0 -15 -11
-15 -40 l0 -40 -45 0 -45 0 0 40 c0 29 -4 40 -15 40 -12 0 -15 -18 -15 -105z"/>
<path d="M1220 985 c0 -63 4 -105 10 -105 6 0 10 42 10 105 0 63 -4 105 -10
105 -6 0 -10 -42 -10 -105z"/>
</g>
</svg>
